<svg width="380" height="32" viewBox="0 0 380 32" fill="none" xmlns="http://www.w3.org/2000/svg">
<g id="logo-gradient-neutral-marketplace">
<g id="Group">
<g id="Group_2">
<g id="Group_3">
<path id="Vector" d="M7.83867 11.0841C7.47791 10.6873 6.93679 10.7234 6.68425 11.1923L0.839883 22.9171C0.623426 23.3861 0.948138 23.9273 1.4532 23.9273H9.60642C9.85895 23.9273 10.1115 23.7829 10.2197 23.5304C12.0235 19.8867 10.9412 14.367 7.83867 11.0841Z" fill="url(#paint0_linear)"/>
<path id="Vector_2" d="M12.1334 0.405337C8.85044 5.60031 9.06689 11.3364 11.2315 15.6655C13.396 19.9946 15.0556 23.2776 15.1638 23.5301C15.272 23.7827 15.5245 23.927 15.7771 23.927H23.9303C24.4353 23.927 24.7961 23.3858 24.5436 22.9169C24.5436 22.9169 13.5764 0.982504 13.2878 0.441361C13.1074 -0.0637063 12.4581 -0.0997297 12.1334 0.405337Z" fill="#7A869A"/>
</g>
</g>
<g id="Group_4">
<g id="Group_5">
<g id="Group_6">
<path id="Vector_3" d="M122.92 18.1187C122.92 14.6914 121.08 13.068 115.957 11.9497C113.107 11.3364 112.422 10.687 112.422 9.78511C112.422 8.66675 113.432 8.16168 115.308 8.16168C117.58 8.16168 119.817 8.84708 121.946 9.82113V5.31161C120.467 4.55401 118.158 3.97681 115.452 3.97681C110.365 3.97681 107.732 6.17744 107.732 9.82113C107.732 12.7072 109.066 15.0161 114.334 16.0262C117.472 16.6756 118.122 17.1807 118.122 18.2269C118.122 19.237 117.472 19.8864 115.236 19.8864C112.674 19.8864 109.608 19.0205 107.623 17.83V22.5561C109.211 23.3497 111.303 24.2156 115.199 24.2156C120.755 24.2156 122.92 21.7624 122.92 18.1187Z" fill="#505F79"/>
<path id="Vector_4" d="M178.439 4.26538V23.9269H182.624V8.95529L184.392 12.9237L190.308 23.9269H195.575V4.26538H191.391V16.9642L189.803 13.2844L185.041 4.26538H178.439Z" fill="#505F79"/>
<path id="Vector_5" d="M151.815 4.26538H147.234V23.8908H151.815V4.26538Z" fill="#505F79"/>
<path id="Vector_6" d="M141.967 18.1187C141.967 14.6914 140.127 13.068 135.004 11.9497C132.154 11.3364 131.469 10.687 131.469 9.78511C131.469 8.66675 132.479 8.16168 134.355 8.16168C136.628 8.16168 138.865 8.84708 140.993 9.82113V5.31161C139.514 4.55401 137.205 3.97681 134.499 3.97681C129.413 3.97681 126.779 6.17744 126.779 9.82113C126.779 12.7072 128.114 15.0161 133.381 16.0262C136.52 16.6756 137.169 17.1807 137.169 18.2269C137.169 19.237 136.52 19.8864 134.283 19.8864C131.722 19.8864 128.655 19.0205 126.671 17.83V22.5561C128.258 23.3497 130.351 24.2156 134.247 24.2156C139.803 24.2156 141.967 21.7624 141.967 18.1187Z" fill="#505F79"/>
<path id="Vector_7" d="M72.2316 4.26538V23.9269H81.6474L83.1266 19.6699H76.8493V4.26538H72.2316Z" fill="#505F79"/>
<path id="Vector_8" d="M53.6893 4.26599V8.523H58.7761V23.9275H63.3578V8.523H68.8053V4.26599H53.6893Z" fill="#505F79"/>
</g>
</g>
<path id="Vector_9" d="M47.0166 4.26636H40.9919L34.1375 23.8918H39.3685L40.3425 20.5728C41.497 20.8975 42.7236 21.1139 44.0223 21.1139C45.285 21.1139 46.5116 20.9335 47.7021 20.5728L48.6762 23.8918H53.9072L47.0166 4.26636ZM43.9863 17.0734C43.1204 17.0734 42.2546 16.9291 41.4609 16.7126L43.9863 8.12649L46.5116 16.7126C45.7179 16.9291 44.8521 17.0734 43.9863 17.0734Z" fill="#505F79"/>
<path id="Vector_10" d="M97.846 4.2655H91.8213L84.9668 23.8909H90.1978L91.1719 20.5719C92.3263 20.8966 93.5529 21.1131 94.8517 21.1131C96.1144 21.1131 97.3409 20.9327 98.5314 20.5719L99.5055 23.8909H104.737L97.846 4.2655ZM94.8517 17.0726C93.9859 17.0726 93.12 16.9283 92.3264 16.7118L94.8517 8.12564L97.377 16.7118C96.5473 16.9283 95.7175 17.0726 94.8517 17.0726Z" fill="#505F79"/>
<path id="Vector_11" d="M168.304 4.2655H162.279L155.425 23.8909H160.656L161.63 20.5719C162.784 20.8966 164.011 21.1131 165.31 21.1131C166.572 21.1131 167.799 20.9327 168.99 20.5719L169.964 23.8909H175.195L168.304 4.2655ZM165.274 17.0726C164.408 17.0726 163.542 16.9283 162.748 16.7118L165.274 8.12564L167.799 16.7118C167.005 16.9283 166.176 17.0726 165.274 17.0726Z" fill="#505F79"/>
</g>
</g>
<g id="Group_7">
<path id="Vector_12" d="M210.91 4.55443V23.9273H208.024V2.82275H213.039L217.837 14.9443L219.785 20.7526L221.733 14.9443L226.567 2.82275H231.221V23.9273H228.335V4.77083L225.846 12.3829L221.192 23.9273H218.414L213.832 12.3829L210.91 4.55443Z" fill="#505F79"/>
<path id="Vector_13" d="M246.733 21.005C245.723 23.1335 243.775 24.2159 241.322 24.2159C237.065 24.2159 234.9 20.5721 234.9 15.8822C234.9 11.3366 237.137 7.54858 241.646 7.54858C243.991 7.54858 245.795 8.59486 246.769 10.6873V7.87332H249.547V23.9272H246.769V21.005H246.733ZM242.043 21.6544C244.533 21.6544 246.733 20.0671 246.733 16.5316V15.2328C246.733 11.6613 244.713 10.11 242.368 10.11C239.265 10.11 237.642 12.1664 237.642 15.8822C237.642 19.7424 239.193 21.6544 242.043 21.6544Z" fill="#505F79"/>
<path id="Vector_14" d="M256.366 23.9272H253.661V7.87332H256.366V10.6873C257.304 8.77524 258.892 7.44042 262.066 7.6208V10.3265C258.531 9.96575 256.366 11.048 256.366 14.4392V23.9272Z" fill="#505F79"/>
<path id="Vector_15" d="M264.411 23.9271V1.16296H267.189V15.377L274.079 7.87317H277.687L270.147 15.7738L278.012 23.9271H274.26L267.189 16.4232V23.9271H264.411Z" fill="#505F79"/>
<path id="Vector_16" d="M287.175 24.2158C281.186 24.2158 278.553 20.7524 278.553 15.846C278.553 11.0118 281.258 7.51245 286.129 7.51245C291.071 7.51245 293.055 10.9396 293.055 15.846V17.1087H281.331C281.727 19.8505 283.495 21.6182 287.283 21.6182C289.159 21.6182 290.71 21.2575 292.153 20.7524V23.2777C290.819 23.9632 288.798 24.2158 287.175 24.2158ZM281.295 14.7277H290.241C290.097 11.7334 288.726 10.0378 285.984 10.0378C283.062 10.0378 281.583 11.9498 281.295 14.7277Z" fill="#505F79"/>
<path id="Vector_17" d="M302.688 21.2935C303.337 21.2935 303.951 21.1492 304.42 21.077V23.7467C303.951 23.891 303.41 23.9992 302.544 23.9992C299.117 23.9992 297.421 21.979 297.421 18.9847V10.3985H294.823V7.83705H297.421V4.44592H300.127V7.83705H304.384V10.3985H300.127V18.9124C300.127 20.3555 300.956 21.2935 302.688 21.2935Z" fill="#505F79"/>
<path id="Vector_18" d="M310.696 21.0771V30.1683H307.918V7.8371H310.696V10.7232C311.707 8.5947 313.655 7.51245 316.108 7.51245C320.365 7.51245 322.529 11.1561 322.529 15.846C322.529 20.3916 320.293 24.1796 315.783 24.1796C313.474 24.2157 311.67 23.1695 310.696 21.0771ZM315.386 10.1099C312.897 10.1099 310.696 11.6973 310.696 15.2327V16.5315C310.696 20.103 312.717 21.6543 315.062 21.6543C318.164 21.6543 319.788 19.598 319.788 15.8821C319.788 12.022 318.236 10.1099 315.386 10.1099Z" fill="#505F79"/>
<path id="Vector_19" d="M330.071 23.9992C327.438 23.9992 325.778 22.7366 325.778 19.7783V1.12695H328.556V19.4536C328.556 20.8966 329.53 21.4018 330.72 21.4018C331.009 21.4018 331.189 21.4017 331.514 21.3657V23.855C331.262 23.9271 330.757 23.9992 330.071 23.9992Z" fill="#505F79"/>
<path id="Vector_20" d="M344.861 21.005C343.851 23.1335 341.903 24.2159 339.45 24.2159C335.193 24.2159 333.028 20.5721 333.028 15.8822C333.028 11.3366 335.265 7.54858 339.775 7.54858C342.12 7.54858 343.923 8.59486 344.897 10.6873V7.87332H347.675V23.9272H344.897V21.005H344.861ZM340.171 21.6544C342.661 21.6544 344.861 20.0671 344.861 16.5316V15.2328C344.861 11.6613 342.841 10.11 340.496 10.11C337.394 10.11 335.77 12.1664 335.77 15.8822C335.77 19.7424 337.321 21.6544 340.171 21.6544Z" fill="#505F79"/>
<path id="Vector_21" d="M363.153 23.4942C362.179 23.9993 360.699 24.2158 359.22 24.2158C353.52 24.2158 350.851 20.7524 350.851 15.846C350.851 11.0118 353.52 7.51245 359.22 7.51245C360.663 7.51245 361.782 7.69278 363.044 8.27V10.8314C362.034 10.3625 360.916 10.0738 359.401 10.0738C355.216 10.0738 353.52 12.7074 353.52 15.81C353.52 18.9125 355.252 21.5461 359.473 21.5461C361.096 21.5461 362.142 21.3297 363.116 20.9689V23.4942H363.153Z" fill="#505F79"/>
<path id="Vector_22" d="M373.975 24.2158C367.987 24.2158 365.353 20.7524 365.353 15.846C365.353 11.0118 368.059 7.51245 372.929 7.51245C377.871 7.51245 379.856 10.9396 379.856 15.846V17.1087H368.131C368.528 19.8505 370.295 21.6182 374.083 21.6182C375.959 21.6182 377.511 21.2575 378.954 20.7524V23.2777C377.619 23.9632 375.599 24.2158 373.975 24.2158ZM368.095 14.7277H377.042C376.897 11.7334 375.526 10.0378 372.785 10.0378C369.862 10.0378 368.383 11.9498 368.095 14.7277Z" fill="#505F79"/>
</g>
</g>
<defs>
<linearGradient id="paint0_linear" x1="11.0624" y1="12.8736" x2="4.88213" y2="23.5782" gradientUnits="userSpaceOnUse">
<stop stop-color="#344563"/>
<stop offset="0.9228" stop-color="#7A869A"/>
</linearGradient>
</defs>
</svg>
