<svg width="135" height="182" viewBox="0 0 135 182" fill="none" xmlns="http://www.w3.org/2000/svg">
<g filter="url(#filter0_d)">
<path d="M81.625 50.8125C81.625 59.8807 74.0936 67.375 64.625 67.375C55.1564 67.375 47.625 59.8807 47.625 50.8125C47.625 41.7443 55.1564 34.25 64.625 34.25C74.0936 34.25 81.625 41.7443 81.625 50.8125Z" stroke="white" stroke-width="8"/>
<path d="M31 94.6618C53.5332 59.3506 75.1005 60.6456 98 94.6617" stroke="white" stroke-width="10"/>
<rect x="11" y="9" width="109" height="155.375" rx="15" stroke="white" stroke-width="10"/>
<line x1="10.0338" y1="93.6619" x2="115.409" y2="94.3751" stroke="white" stroke-width="10"/>
<rect width="78.75" height="8" rx="4" transform="matrix(1 0 0 -1 27 119.5)" fill="white"/>
<rect width="48.125" height="8" rx="4" transform="matrix(1 0 0 -1 27 133.5)" fill="white"/>
<rect width="69.125" height="8" rx="4" transform="matrix(1 0 0 -1 27 147.5)" fill="white"/>
</g>
<defs>
<filter id="filter0_d" x="0" y="0" width="135" height="181.375" filterUnits="userSpaceOnUse" color-interpolation-filters="sRGB">
<feFlood flood-opacity="0" result="BackgroundImageFix"/>
<feColorMatrix in="SourceAlpha" type="matrix" values="0 0 0 0 0 0 0 0 0 0 0 0 0 0 0 0 0 0 127 0"/>
<feOffset dx="2" dy="4"/>
<feGaussianBlur stdDeviation="4"/>
<feColorMatrix type="matrix" values="0 0 0 0 0 0 0 0 0 0 0 0 0 0 0 0 0 0 0.25 0"/>
<feBlend mode="normal" in2="BackgroundImageFix" result="effect1_dropShadow"/>
<feBlend mode="normal" in="SourceGraphic" in2="effect1_dropShadow" result="shape"/>
</filter>
</defs>
</svg>
