<svg width="230" height="64" viewBox="0 0 230 64" fill="none" xmlns="http://www.w3.org/2000/svg">
<path fill-rule="evenodd" clip-rule="evenodd" d="M53.3485 31.2839C52.8293 30.3325 52.0504 29.6289 51.0119 29.1743C49.9734 28.7202 48.9563 28.4927 47.9616 28.4927C46.7933 28.4927 45.6896 28.7202 44.6512 29.1743C43.6127 29.6289 42.7254 30.2352 41.9898 30.9917C41.2536 31.7497 40.6698 32.6146 40.2376 33.5879C39.8043 34.5617 39.5885 35.5676 39.5885 36.6061V36.8657C40.6698 36.4336 41.8279 35.9683 43.0608 35.4704C44.2943 34.9736 45.5273 34.4645 46.7602 33.9447C47.9937 33.426 49.1721 32.9388 50.2982 32.4848C51.4227 32.0302 52.4398 31.6306 53.3485 31.2839ZM58.8006 47.5106C57.4587 48.7227 55.8363 49.6746 53.9324 50.3664C52.028 51.0582 50.0808 51.4049 48.0909 51.4049C46.0567 51.4049 44.1421 51.0256 42.3472 50.2692C40.5507 49.5127 38.993 48.4743 37.674 47.1537C36.3535 45.8342 35.3048 44.2979 34.526 42.5457C33.7471 40.793 33.3577 38.9217 33.3577 36.9312C33.3577 34.9413 33.7471 33.0689 34.526 31.3168C35.3048 29.5641 36.3535 28.0288 37.674 26.7087C38.993 25.3887 40.5299 24.3508 42.282 23.5933C44.0342 22.8363 45.8842 22.457 47.8313 22.457C50.9468 22.457 53.683 23.3983 56.042 25.2803C58.4 27.1628 60.0763 29.6404 61.0721 32.7121C59.7739 33.1886 58.2702 33.7618 56.5613 34.4322C54.8513 35.1032 53.0665 35.8062 51.2064 36.5418C49.3458 37.2779 47.4846 38.0242 45.6251 38.7806C43.7639 39.5387 42.055 40.2198 40.4973 40.8256C41.2323 42.1669 42.25 43.2492 43.5476 44.0708C44.8457 44.893 46.3163 45.3038 47.9617 45.3038C49.0862 45.3038 50.2219 45.0992 51.3688 44.6873C52.5147 44.2765 53.4559 43.7247 54.1926 43.0323L58.8006 47.5106Z" fill="#555555"/>
<path fill-rule="evenodd" clip-rule="evenodd" d="M67.7475 36.8015C67.7475 38.0136 67.9526 39.1381 68.3639 40.1766C68.7747 41.2151 69.3592 42.1136 70.1167 42.87C70.8731 43.6275 71.7716 44.2232 72.8101 44.6553C73.8486 45.088 74.9945 45.3044 76.2504 45.3044C77.5047 45.3044 78.6516 45.088 79.6901 44.6553C80.7286 44.2232 81.626 43.6163 82.3835 42.8374C83.14 42.0586 83.7244 41.1504 84.1362 40.1114C84.547 39.0729 84.7527 37.9698 84.7527 36.8015C84.7527 35.6332 84.547 34.5413 84.1362 33.5236C83.7244 32.5076 83.14 31.6315 82.3835 30.8948C81.626 30.1598 80.7286 29.5759 79.6901 29.1426C78.6516 28.7105 77.5047 28.4936 76.2504 28.4936C74.9945 28.4936 73.8486 28.6993 72.8101 29.1101C71.7716 29.5219 70.8731 30.1058 70.1167 30.8628C69.3592 31.6203 68.7747 32.5076 68.3639 33.5236C67.9526 34.5413 67.7475 35.6332 67.7475 36.8015ZM61.4519 37.191C61.4519 35.2011 61.8413 33.3079 62.6202 31.5119C63.3991 29.7165 64.4477 28.1481 65.7677 26.8062C67.0872 25.4653 68.6241 24.3942 70.3763 23.5935C72.1285 22.7932 73.9784 22.3926 75.9256 22.3926C77.2237 22.3926 78.392 22.555 79.4305 22.8792C80.4689 23.204 81.3664 23.5833 82.1244 24.0149C82.8809 24.4482 83.476 24.8916 83.9087 25.3456C84.3408 25.8003 84.6229 26.1571 84.7527 26.4167L85.0123 23.1063H91.0488V50.6914H84.7527V48.874C84.7527 48.6582 84.7629 48.452 84.7853 48.2576C84.8067 48.0626 84.8179 47.9226 84.8179 47.8355C84.6443 48.0524 84.3408 48.366 83.9087 48.7768C83.476 49.1881 82.8921 49.5882 82.1565 49.9777C81.4204 50.3671 80.5443 50.7015 79.5277 50.9836C78.5106 51.2646 77.331 51.4051 75.9907 51.4051C73.87 51.4051 71.9228 51.0156 70.1492 50.2368C68.3741 49.4579 66.8388 48.42 65.5407 47.1213C64.2426 45.8237 63.2367 44.3205 62.5224 42.6105C61.8088 40.9016 61.4519 39.0955 61.4519 37.191Z" fill="#555555"/>
<path fill-rule="evenodd" clip-rule="evenodd" d="M93.8997 50.6915H100.065V0H93.8997V50.6915Z" fill="#555555"/>
<path fill-rule="evenodd" clip-rule="evenodd" d="M102.917 50.6902H109.147V23.1051H102.917V50.6902ZM102.203 12.3963C102.203 11.2718 102.613 10.3417 103.436 9.60508C104.258 8.87002 105.145 8.50195 106.097 8.50195C107.049 8.50195 107.925 8.87002 108.726 9.60508C109.526 10.3417 109.926 11.2718 109.926 12.3963C109.926 13.5646 109.526 14.5058 108.726 15.2195C107.925 15.9338 107.049 16.2906 106.097 16.2906C105.145 16.2906 104.258 15.9338 103.436 15.2195C102.613 14.5058 102.203 13.5646 102.203 12.3963Z" fill="#555555"/>
<path fill-rule="evenodd" clip-rule="evenodd" d="M117.61 36.8015C117.61 38.0136 117.814 39.1381 118.226 40.1766C118.637 41.2151 119.221 42.1136 119.979 42.87C120.735 43.6275 121.633 44.2232 122.672 44.6553C123.711 45.088 124.856 45.3044 126.112 45.3044C127.367 45.3044 128.524 45.088 129.584 44.6553C130.644 44.2232 131.554 43.6163 132.311 42.8374C133.067 42.0586 133.651 41.1504 134.063 40.1114C134.473 39.0729 134.68 37.9698 134.68 36.8015C134.68 35.6332 134.473 34.5413 134.063 33.5236C133.651 32.5076 133.067 31.6315 132.311 30.8948C131.554 30.1598 130.644 29.5759 129.584 29.1426C128.524 28.7105 127.367 28.4936 126.112 28.4936C124.856 28.4936 123.711 28.6993 122.672 29.1101C121.633 29.5219 120.735 30.1058 119.979 30.8628C119.221 31.6203 118.637 32.5076 118.226 33.5236C117.814 34.5413 117.61 35.6332 117.61 36.8015ZM111.379 37.0612C111.379 34.9842 111.745 33.0483 112.482 31.2523C113.217 29.4569 114.223 27.8991 115.5 26.5791C116.776 25.2596 118.268 24.2324 119.979 23.4957C121.687 22.7606 123.516 22.3926 125.463 22.3926C126.934 22.3926 128.232 22.5876 129.357 22.977C130.482 23.3664 131.423 23.7991 132.181 24.2746C132.937 24.7516 133.521 25.2057 133.933 25.6379C134.344 26.0711 134.593 26.3302 134.68 26.4167C134.68 25.9407 134.722 25.422 134.809 24.859C134.895 24.297 134.939 23.7131 134.939 23.1063H140.911V49.2635C140.911 51.6001 140.542 53.6872 139.807 55.527C139.071 57.3657 138.043 58.9021 136.724 60.135C135.404 61.3685 133.825 62.3097 131.986 62.9582C130.146 63.6078 128.124 63.9321 125.918 63.9321C124.23 63.9321 122.747 63.7585 121.471 63.4129C120.195 63.0662 119.047 62.6116 118.031 62.0501C117.015 61.4871 116.085 60.8594 115.24 60.1676C114.396 59.4747 113.586 58.7819 112.807 58.0906L116.831 53.872C118.042 54.9965 119.339 55.9586 120.725 56.7599C122.109 57.5601 123.797 57.9608 125.788 57.9608C128.47 57.9608 130.612 57.3117 132.213 56.0136C133.814 54.7155 134.615 52.8757 134.615 50.4969V49.7501C134.615 49.4691 134.636 49.1775 134.68 48.874C134.68 48.4846 134.722 48.139 134.809 47.8355C134.895 47.5332 134.939 47.2736 134.939 47.0567C134.55 47.4899 134.084 47.9653 133.544 48.4846C133.002 49.0038 132.354 49.4803 131.597 49.9125C130.839 50.3457 129.963 50.7015 128.968 50.9836C127.972 51.2646 126.826 51.4051 125.528 51.4051C123.451 51.4051 121.546 51.037 119.817 50.3019C118.085 49.5669 116.593 48.5498 115.338 47.2517C114.082 45.953 113.109 44.4391 112.417 42.7083C111.724 40.978 111.379 39.0955 111.379 37.0612Z" fill="#555555"/>
<path fill-rule="evenodd" clip-rule="evenodd" d="M143.227 23.1063H148.679C148.765 24.664 148.863 25.9301 148.971 26.9034C149.079 27.8772 149.176 28.9702 149.263 30.1812C150.258 27.8446 151.665 25.9621 153.482 24.5342C155.3 23.1063 157.571 22.3926 160.297 22.3926C163.11 22.3926 165.349 23.1613 167.015 24.6966C168.68 26.233 169.557 28.2341 169.644 30.7005V50.6914H163.477V33.621C163.39 32.2801 162.915 31.122 162.049 30.1487C161.184 29.1748 159.843 28.6459 158.025 28.5583C156.77 28.5583 155.613 28.7854 154.553 29.24C153.493 29.6946 152.584 30.311 151.828 31.0899C151.069 31.8688 150.486 32.7999 150.074 33.8806C149.663 34.9629 149.458 36.1312 149.458 37.3855V50.6914H143.227V23.1063Z" fill="#555555"/>
<path fill-rule="evenodd" clip-rule="evenodd" d="M191.606 31.2839C191.087 30.3325 190.308 29.6289 189.27 29.1743C188.232 28.7202 187.214 28.4927 186.219 28.4927C185.051 28.4927 183.947 28.7202 182.909 29.1743C181.87 29.6289 180.983 30.2352 180.248 30.9917C179.511 31.7497 178.928 32.6146 178.495 33.5879C178.062 34.5617 177.846 35.5676 177.846 36.6061V36.8657C178.928 36.4336 180.086 35.9683 181.319 35.4704C182.552 34.9736 183.785 34.4645 185.018 33.9447C186.252 33.426 187.43 32.9388 188.556 32.4848C189.681 32.0302 190.698 31.6306 191.606 31.2839ZM197.058 47.5106C195.716 48.7227 194.094 49.6746 192.191 50.3664C190.286 51.0582 188.339 51.4049 186.349 51.4049C184.315 51.4049 182.4 51.0256 180.605 50.2692C178.809 49.5127 177.251 48.4743 175.932 47.1537C174.612 45.8342 173.563 44.2979 172.784 42.5457C172.005 40.793 171.615 38.9217 171.615 36.9312C171.615 34.9413 172.005 33.0689 172.784 31.3168C173.563 29.5641 174.612 28.0288 175.932 26.7087C177.251 25.3887 178.787 24.3508 180.54 23.5933C182.292 22.8363 184.142 22.457 186.089 22.457C189.205 22.457 191.941 23.3983 194.3 25.2803C196.658 27.1628 198.334 29.6404 199.33 32.7121C198.032 33.1886 196.528 33.7618 194.819 34.4322C193.109 35.1032 191.325 35.8062 189.465 36.5418C187.603 37.2779 185.742 38.0242 183.883 38.7806C182.022 39.5387 180.313 40.2198 178.755 40.8256C179.49 42.1669 180.508 43.2492 181.806 44.0708C183.104 44.893 184.574 45.3038 186.219 45.3038C187.344 45.3038 188.479 45.0992 189.627 44.6873C190.772 44.2765 191.714 43.7247 192.45 43.0323L197.058 47.5106Z" fill="#555555"/>
<path fill-rule="evenodd" clip-rule="evenodd" d="M206.54 36.8015C206.54 38.0136 206.744 39.1381 207.156 40.1766C207.567 41.2151 208.152 42.1136 208.909 42.87C209.665 43.6275 210.563 44.2232 211.602 44.6553C212.641 45.088 213.786 45.3044 215.042 45.3044C216.297 45.3044 217.454 45.088 218.515 44.6553C219.574 44.2232 220.484 43.6163 221.241 42.8374C221.998 42.0586 222.581 41.1504 222.993 40.1114C223.404 39.0729 223.61 37.9698 223.61 36.8015C223.61 35.6332 223.404 34.5413 222.993 33.5236C222.581 32.5076 221.998 31.6315 221.241 30.8948C220.484 30.1598 219.574 29.5759 218.515 29.1426C217.454 28.7105 216.297 28.4936 215.042 28.4936C213.786 28.4936 212.641 28.6993 211.602 29.1101C210.563 29.5219 209.665 30.1058 208.909 30.8628C208.152 31.6203 207.567 32.5076 207.156 33.5236C206.744 34.5413 206.54 35.6332 206.54 36.8015ZM200.309 36.9315C200.309 34.7685 200.666 32.8 201.38 31.0254C202.094 29.2513 203.088 27.7261 204.366 26.4494C205.641 25.1732 207.134 24.1774 208.843 23.4637C210.553 22.7495 212.424 22.3927 214.458 22.3927C215.842 22.3927 217.054 22.5449 218.093 22.8467C219.131 23.1502 220.017 23.5182 220.754 23.9504C221.489 24.3831 222.085 24.8489 222.539 25.3457C222.993 25.8436 223.35 26.2656 223.61 26.6113V0H229.841V50.6915H223.61V48.8741C223.61 48.6583 223.631 48.42 223.674 48.1604C223.717 47.9003 223.739 47.7058 223.739 47.576C223.35 47.9654 222.874 48.3869 222.312 48.8415C221.749 49.2961 221.079 49.7182 220.3 50.1076C219.521 50.497 218.644 50.8101 217.671 51.0483C216.698 51.2855 215.583 51.4052 214.328 51.4052C212.121 51.4052 210.142 51.0259 208.39 50.2694C206.637 49.513 205.166 48.4745 203.976 47.154C202.785 45.8345 201.877 44.2981 201.25 42.546C200.622 40.7932 200.309 38.9225 200.309 36.9315Z" fill="#555555"/>
<path d="M12.762 28.3634V23.1934H16.1435" stroke="#4A4A4A" stroke-width="1.01"/>
<path d="M12.762 10.832V14.314H18.1211" stroke="#4A4A4A" stroke-width="1.01"/>
<path d="M7.89648 16.4175H16.5895" stroke="#4A4A4A" stroke-width="1.01"/>
<path d="M7.89648 18.5952H13.2086" stroke="#4A4A4A" stroke-width="1.01"/>
<path d="M7.89648 20.7554H19.0143" stroke="#4A4A4A" stroke-width="1.01"/>
<path fill-rule="evenodd" clip-rule="evenodd" d="M17.4316 23.1403C17.4316 23.4961 17.1431 23.7846 16.7873 23.7846C16.4315 23.7846 16.1431 23.4961 16.1431 23.1403C16.1431 22.7846 16.4315 22.4961 16.7873 22.4961C17.1431 22.4961 17.4316 22.7846 17.4316 23.1403Z" stroke="#4A4A4A" stroke-width="1.01"/>
<path fill-rule="evenodd" clip-rule="evenodd" d="M20.3024 20.7556C20.3024 21.1114 20.0139 21.3998 19.6582 21.3998C19.3024 21.3998 19.0139 21.1114 19.0139 20.7556C19.0139 20.3998 19.3024 20.1113 19.6582 20.1113C20.0139 20.1113 20.3024 20.3998 20.3024 20.7556Z" stroke="#4A4A4A" stroke-width="1.01"/>
<path fill-rule="evenodd" clip-rule="evenodd" d="M14.4972 18.5954C14.4972 18.9512 14.2088 19.2397 13.853 19.2397C13.4972 19.2397 13.2087 18.9512 13.2087 18.5954C13.2087 18.2396 13.4972 17.9512 13.853 17.9512C14.2088 17.9512 14.4972 18.2396 14.4972 18.5954Z" stroke="#4A4A4A" stroke-width="1.01"/>
<path fill-rule="evenodd" clip-rule="evenodd" d="M17.8781 16.4177C17.8781 16.7735 17.5896 17.0619 17.2338 17.0619C16.8781 17.0619 16.5896 16.7735 16.5896 16.4177C16.5896 16.0619 16.8781 15.7734 17.2338 15.7734C17.5896 15.7734 17.8781 16.0619 17.8781 16.4177Z" stroke="#4A4A4A" stroke-width="1.01"/>
<path fill-rule="evenodd" clip-rule="evenodd" d="M19.4093 14.3122C19.4093 14.668 19.1209 14.9565 18.7651 14.9565C18.4093 14.9565 18.1208 14.668 18.1208 14.3122C18.1208 13.9564 18.4093 13.668 18.7651 13.668C19.1209 13.668 19.4093 13.9564 19.4093 14.3122Z" stroke="#4A4A4A" stroke-width="1.01"/>
<path fill-rule="evenodd" clip-rule="evenodd" d="M7.89651 26.8846H14.2402C15.8796 26.8846 17.2386 26.6041 18.3177 26.0432C19.3957 25.4828 20.2595 24.8033 20.9065 24.0042C21.5539 23.2061 22.0074 22.3433 22.266 21.4149C22.5251 20.4875 22.6544 19.6349 22.6544 18.8582C22.6544 18.1253 22.5347 17.2946 22.298 16.3662C22.0609 15.4388 21.6292 14.5648 21.0037 13.7448C20.3781 12.9254 19.525 12.2346 18.447 11.6732C17.3679 11.1133 15.9875 10.8318 14.3043 10.8318H7.89651V26.8846ZM0 42.6776V3.38867H13.3337C15.9224 3.38867 18.2857 3.7343 20.4215 4.42395C22.5577 5.11468 24.3697 6.10669 25.8586 7.4016C27.3474 8.69597 28.5007 10.2927 29.3218 12.1912C30.1407 14.0903 30.551 16.2266 30.551 18.5995C30.551 19.8939 30.4223 21.1883 30.1632 22.4826C29.9035 23.7775 29.4933 25.0292 28.9329 26.237C28.372 27.4454 27.6391 28.5571 26.732 29.5704C25.826 30.5849 24.7469 31.4588 23.4958 32.1918C24.4445 33.703 39.376 54.156 40.5411 55.9685C34.6424 55.9685 29.0937 53.1784 25.577 48.4427C21.3456 42.7438 16.1441 35.8398 15.1462 34.328H14.4988H7.89657V50.5747C3.53535 50.5747 0 47.0394 0 42.6776Z" fill="#338DC8"/>
</svg>
